<?xml version="1.0" standalone="no"?>
<!DOCTYPE svg PUBLIC "-//W3C//DTD SVG 20010904//EN"
 "http://www.w3.org/TR/2001/REC-SVG-20010904/DTD/svg10.dtd">
<svg version="1.0" xmlns="http://www.w3.org/2000/svg"
 width="1280.000000pt" height="640.000000pt" viewBox="0 0 1280.000000 640.000000"
 preserveAspectRatio="xMidYMid meet">
<metadata>
Created by potrace 1.15, written by Peter Selinger 2001-2017
</metadata>
<g transform="translate(0.000000,640.000000) scale(0.100000,-0.100000)"
fill="#ffffff" stroke="none">
<path d="M1275 5309 c-300 -38 -580 -199 -796 -458 -98 -117 -140 -190 -190
-331 -85 -241 -132 -576 -146 -1027 -5 -179 -9 -220 -20 -216 -7 3 -13 -1 -13
-10 0 -31 -20 -27 -53 9 -20 22 -39 34 -45 30 -15 -9 -16 -185 -2 -206 9 -13
16 -9 44 23 38 42 51 46 59 16 3 -12 10 -18 15 -15 5 3 11 -105 15 -262 9
-390 34 -615 92 -849 59 -234 122 -354 264 -505 204 -215 429 -345 701 -404
116 -25 404 -25 540 0 303 55 557 145 997 352 378 179 571 237 788 238 180 1
296 -27 565 -134 324 -129 511 -174 735 -174 168 -1 221 9 332 60 142 64 222
171 204 270 -23 122 -84 169 -332 254 -222 76 -370 173 -452 297 -62 95 -82
154 -81 238 1 123 68 215 203 278 66 31 66 31 291 38 124 4 518 10 875 13 358
3 700 8 760 11 61 3 396 7 745 10 349 3 685 7 745 10 61 3 382 8 715 11 333 4
812 10 1065 14 253 4 552 6 665 5 290 -3 349 -16 791 -174 154 -55 233 -71
354 -71 119 0 192 16 294 66 96 47 133 44 228 -18 127 -84 149 -93 243 -93 76
0 91 3 140 30 112 62 170 151 170 263 0 78 -17 121 -64 158 -24 19 -36 37 -36
54 0 24 2 25 49 22 l49 -4 12 52 c11 46 10 53 -6 72 -45 49 -153 80 -207 59
-26 -10 -39 -32 -53 -85 -5 -22 -1 -25 74 -63 2 -1 -2 -11 -8 -23 -7 -13 -18
-19 -28 -16 -176 51 -189 56 -187 79 2 20 6 22 48 19 45 -4 46 -3 57 35 19 62
11 84 -42 116 -80 50 -180 49 -199 -1 -25 -65 -23 -77 15 -97 37 -20 42 -30
27 -53 -7 -11 -28 -8 -108 17 -91 28 -100 33 -100 55 0 24 2 24 48 19 l48 -6
11 43 c6 23 9 53 6 66 -12 48 -142 97 -211 80 -17 -4 -31 -18 -41 -41 -22 -53
-18 -70 21 -91 27 -14 34 -23 29 -39 -4 -11 -8 -21 -9 -23 -2 -2 -36 6 -77 18
-141 41 -136 38 -131 64 4 21 10 24 50 23 l45 -2 15 50 15 50 -36 31 c-40 35
-95 54 -152 54 -49 0 -60 -7 -79 -53 -22 -53 -19 -62 25 -82 44 -20 45 -22 26
-48 -13 -17 -19 -17 -118 14 -98 29 -104 33 -100 55 4 21 9 23 50 21 l45 -2
13 50 c12 47 12 51 -9 74 -35 37 -95 61 -160 61 l-58 0 -20 -46 c-25 -54 -21
-69 25 -90 31 -15 33 -19 24 -40 -12 -26 -9 -26 -129 10 -66 20 -74 25 -77 49
-3 26 -2 27 44 24 l48 -2 13 45 c18 59 5 82 -61 115 -36 18 -66 25 -108 25
-53 0 -59 -2 -71 -27 -8 -16 -17 -40 -21 -55 -5 -24 -1 -30 34 -50 45 -26 45
-26 25 -51 -13 -18 -17 -18 -113 12 -55 17 -120 31 -143 31 -41 0 -48 -4 -114
-74 -38 -41 -80 -79 -93 -85 -22 -12 -841 -16 -972 -6 -30 2 -352 7 -715 10
-636 5 -1000 9 -1750 20 -192 3 -647 7 -1010 10 -890 7 -885 7 -921 77 -29 56
-15 119 59 274 68 144 119 267 131 318 5 20 10 26 15 18 6 -10 11 -9 21 3 15
18 40 20 40 3 0 -7 11 -26 24 -42 22 -29 24 -29 34 -10 16 29 44 186 35 195
-9 9 -73 -28 -73 -42 0 -18 -21 -8 -32 16 -6 13 -15 22 -19 19 -5 -3 -9 30 -9
73 0 160 -51 284 -160 394 -114 115 -247 162 -460 162 -217 0 -430 -50 -739
-174 -254 -102 -324 -120 -507 -126 -270 -10 -363 19 -899 277 -646 311 -1049
416 -1420 369z"/>
</g>
</svg>
